<?xml version="1.0" standalone="no"?>
<!DOCTYPE svg PUBLIC "-//W3C//DTD SVG 20010904//EN"
 "http://www.w3.org/TR/2001/REC-SVG-20010904/DTD/svg10.dtd">
<svg version="1.0" xmlns="http://www.w3.org/2000/svg"
 width="1164.000000pt" height="1164.000000pt" viewBox="0 0 1164.000000 1164.000000"
 preserveAspectRatio="xMidYMid meet">
<metadata>
Created by potrace 1.14, written by Peter Selinger 2001-2017
</metadata>
<g transform="translate(0.000000,1164.000000) scale(0.100000,-0.100000)"
fill="#000000" stroke="none">
<path d="M3769 11155 c-2 -1 -29 -5 -59 -8 -125 -13 -301 -50 -420 -89 -349
-113 -657 -327 -905 -629 -35 -42 -121 -163 -135 -189 -7 -14 -17 -27 -21 -30
-12 -8 -162 -305 -197 -392 -66 -160 -156 -461 -178 -597 -3 -18 -8 -43 -10
-55 -10 -44 -33 -194 -39 -256 -4 -36 -9 -73 -10 -82 -3 -15 -11 -119 -20
-253 -2 -22 -3 -119 -4 -215 l-1 -175 -53 -29 c-132 -74 -448 -274 -467 -296
-3 -3 -21 -17 -40 -30 -19 -13 -87 -65 -150 -116 -518 -412 -865 -900 -994
-1398 -46 -177 -59 -272 -61 -462 -5 -339 55 -596 214 -919 267 -541 793
-1046 1508 -1445 l43 -24 1 -175 c1 -184 1 -187 13 -341 7 -97 13 -158 22
-220 3 -19 7 -53 10 -75 2 -22 9 -67 15 -100 6 -33 13 -71 15 -85 3 -14 11
-56 20 -95 9 -38 17 -77 19 -85 23 -105 119 -407 136 -424 5 -6 9 -16 9 -24 0
-17 141 -309 168 -350 10 -15 48 -72 85 -127 37 -55 77 -112 89 -126 13 -15
41 -48 63 -75 65 -78 182 -190 265 -254 25 -19 47 -37 50 -41 3 -3 37 -26 75
-51 340 -220 679 -319 1100 -322 264 -1 407 15 695 80 283 63 747 249 1035
414 22 13 58 34 80 46 77 45 114 64 123 64 4 0 60 -30 123 -66 154 -89 446
-231 599 -292 233 -93 548 -185 715 -208 28 -3 59 -9 70 -11 117 -25 550 -38
645 -19 14 2 48 7 75 11 146 18 346 74 500 140 308 132 551 324 790 626 22 28
115 168 115 173 0 3 12 22 26 43 66 97 202 409 257 593 66 219 125 516 143
715 3 39 7 81 10 95 7 48 17 287 18 425 l0 140 41 24 c22 13 72 42 110 64 123
72 347 221 460 307 537 406 900 874 1061 1367 l24 74 0 529 0 529 -40 113
c-58 162 -156 355 -259 509 -49 74 -98 143 -108 154 -10 11 -25 29 -33 41 -49
70 -264 295 -386 404 -94 84 -112 99 -211 174 -54 42 -103 81 -110 86 -22 18
-307 207 -338 224 -16 9 -37 21 -45 26 -8 6 -49 29 -90 53 l-75 42 -1 140 c-3
420 -55 832 -144 1140 -11 39 -23 80 -25 92 -26 116 -172 454 -258 598 -221
367 -503 635 -842 800 -60 29 -130 61 -155 70 -292 104 -473 134 -795 130
-121 -2 -233 -6 -250 -9 -16 -3 -75 -12 -130 -21 -112 -16 -152 -23 -177 -31
-9 -3 -25 -6 -35 -8 -10 -2 -47 -12 -83 -21 -36 -9 -69 -18 -75 -19 -5 -1 -14
-4 -20 -8 -5 -3 -26 -9 -45 -13 -19 -4 -98 -30 -175 -57 -128 -46 -173 -64
-262 -104 -17 -8 -34 -14 -37 -14 -5 0 -234 -112 -324 -159 -15 -8 -80 -44
-144 -81 -64 -37 -120 -64 -125 -60 -16 16 -190 114 -328 185 -413 212 -816
344 -1240 406 -73 10 -498 23 -506 14z m451 -740 c348 -66 597 -147 875 -283
l96 -47 -133 -112 c-309 -259 -594 -535 -853 -827 -38 -44 -74 -84 -80 -90 -5
-6 -25 -29 -44 -51 -35 -40 -35 -40 -195 -73 -89 -18 -168 -35 -176 -36 -8 -2
-55 -14 -105 -26 -49 -12 -101 -24 -114 -26 -47 -10 -290 -77 -446 -124 -151
-46 -271 -87 -461 -158 l-82 -31 4 52 c3 48 8 110 19 227 2 25 7 59 9 75 3 17
8 47 12 69 3 21 8 48 10 60 2 11 7 37 10 56 13 79 77 307 113 403 44 117 110
259 147 312 13 20 24 38 24 41 0 3 31 47 68 97 124 166 271 295 431 375 45 23
81 39 81 35 0 -3 6 -1 13 5 13 11 131 49 181 58 17 3 63 11 101 19 72 13 426
14 495 0z m3847 -14 c396 -88 678 -322 887 -739 58 -115 147 -368 170 -485 44
-220 47 -238 71 -437 3 -25 8 -82 11 -128 l6 -82 -54 21 c-150 62 -719 243
-858 274 -8 1 -35 8 -60 15 -25 7 -52 13 -60 15 -8 2 -46 11 -85 20 -38 9 -77
18 -85 20 -8 2 -90 18 -181 37 -158 31 -167 34 -191 65 -154 198 -610 657
-903 909 -44 38 -85 73 -91 79 -6 6 -34 28 -62 50 -29 21 -52 42 -52 46 0 8
161 87 275 135 253 105 534 183 713 200 37 4 69 8 72 11 2 2 90 2 195 -1 141
-3 214 -10 282 -25z m-1932 -2286 c48 -5 239 -41 315 -59 112 -27 351 -121
480 -189 444 -233 768 -567 1016 -1047 89 -174 180 -485 209 -720 14 -114 21
-383 11 -465 -2 -16 -7 -59 -10 -95 -26 -238 -115 -533 -233 -765 -32 -64
-127 -227 -145 -250 -4 -5 -26 -35 -47 -65 -154 -214 -362 -413 -593 -568
-152 -102 -328 -191 -493 -249 -76 -26 -218 -69 -256 -77 -183 -37 -225 -43
-394 -55 -177 -12 -361 -1 -570 35 -179 30 -452 127 -645 227 -68 36 -242 144
-280 174 -145 116 -192 156 -267 231 -48 48 -102 103 -118 122 -56 65 -170
217 -200 268 -5 9 -22 35 -36 57 -39 60 -132 248 -172 350 -49 124 -83 242
-111 382 -22 107 -30 162 -42 287 -5 55 -4 300 1 356 11 116 17 159 25 205 5
28 11 61 14 75 2 14 12 54 21 90 9 36 18 70 19 75 11 56 88 258 139 365 216
455 574 826 1017 1057 136 71 376 167 447 179 7 1 42 10 79 19 37 9 75 18 83
20 32 5 86 15 107 19 11 2 54 7 95 11 41 4 76 8 77 10 6 6 393 -2 457 -10z
m-4291 -777 c42 -253 41 -246 78 -413 16 -77 31 -147 33 -155 27 -135 129
-490 212 -744 l66 -199 -76 -236 c-67 -209 -116 -366 -123 -396 -1 -5 -21 -83
-44 -173 -23 -90 -43 -171 -45 -180 -2 -9 -15 -73 -29 -141 -15 -68 -29 -140
-32 -159 -3 -19 -8 -44 -10 -56 -2 -11 -9 -48 -15 -81 -5 -33 -12 -69 -14 -80
-2 -11 -4 -26 -4 -32 -1 -7 -5 -13 -10 -13 -13 0 -254 173 -346 248 -331 272
-565 574 -675 873 -17 46 -34 95 -36 108 -3 14 -7 28 -9 31 -2 4 -6 20 -9 36
-3 16 -10 52 -15 79 -11 52 -8 318 4 370 104 482 409 876 1005 1297 36 26 70
47 77 47 7 1 15 -14 17 -31z m8109 -10 c62 -42 208 -148 217 -158 3 -3 25 -21
50 -40 181 -140 389 -363 514 -553 332 -504 332 -1000 1 -1502 -134 -205 -365
-444 -594 -615 -18 -14 -45 -34 -59 -46 -55 -41 -202 -137 -206 -133 -2 2 -7
24 -10 49 -3 25 -8 56 -11 70 -3 14 -7 39 -10 55 -3 25 -17 95 -41 215 -6 29
-34 159 -39 180 -2 8 -8 38 -15 65 -15 70 -77 303 -90 342 -6 18 -13 40 -15
50 -7 35 -77 259 -121 389 l-45 132 36 103 c20 57 38 111 41 119 2 8 20 67 40
130 46 145 97 326 129 455 34 141 66 276 71 305 3 14 11 57 19 95 8 39 17 84
20 100 29 176 41 235 48 235 4 0 36 -19 70 -42z m-7288 -4268 c375 -137 811
-259 1220 -340 169 -34 164 -31 229 -110 170 -208 586 -625 831 -835 32 -27
63 -55 69 -60 6 -6 48 -42 94 -79 l84 -69 -69 -34 c-150 -74 -462 -198 -549
-218 -11 -2 -44 -11 -74 -20 -30 -8 -68 -18 -85 -21 -16 -3 -48 -9 -70 -14
-22 -5 -62 -12 -90 -16 -27 -3 -59 -8 -70 -11 -11 -2 -92 -6 -180 -9 -140 -3
-238 3 -325 21 -14 2 -38 7 -55 11 -104 21 -282 94 -382 157 -46 29 -159 121
-186 151 -10 11 -41 45 -68 76 -57 63 -55 60 -96 120 -91 134 -171 294 -227
455 -35 100 -74 235 -83 284 -2 14 -8 45 -14 69 -5 23 -12 59 -15 78 -3 20 -7
44 -9 53 -2 9 -6 44 -10 76 -4 33 -9 67 -10 76 -5 23 -16 156 -19 217 -3 45
-1 52 13 47 9 -4 75 -28 146 -55z m6540 -27 c-3 -49 -7 -104 -10 -123 -2 -19
-7 -57 -10 -85 -39 -320 -112 -583 -231 -830 -195 -405 -484 -652 -868 -740
-101 -23 -174 -30 -336 -30 -126 0 -185 4 -301 19 -91 13 -285 62 -423 108
-175 58 -500 202 -494 218 2 4 64 58 138 121 253 213 536 484 745 714 50 54
109 119 133 144 23 26 57 65 75 88 18 23 39 45 47 48 8 3 82 19 165 36 82 16
224 48 315 70 91 22 172 42 181 44 9 2 49 13 90 25 41 12 79 23 84 25 75 15
517 161 645 212 28 11 53 21 58 22 2 1 0 -38 -3 -86z"/>
</g>
</svg>
