<svg width="388" height="356" viewBox="0 0 388 356" fill="none" xmlns="http://www.w3.org/2000/svg">
<g clip-path="url(#clip0_56_159)">
<path fill-rule="evenodd" clip-rule="evenodd" d="M97.6097 8.73677C124.314 -6.68117 159.75 -1.0387 195.22 20.5116C230.689 -1.03771 266.123 -6.67969 292.828 8.73796C319.532 24.1556 332.363 57.6639 331.435 99.1558C367.834 119.099 390.439 146.966 390.439 177.802C390.439 208.638 367.835 236.505 331.437 256.447C332.365 297.94 319.534 331.449 292.829 346.867C266.125 362.285 230.689 356.642 195.22 335.092C159.749 356.643 124.313 362.286 97.6081 346.868C70.903 331.45 58.0718 297.94 59.0004 256.446C22.6035 236.504 0 208.637 0 177.802C0 146.966 22.6041 119.099 59.002 99.1568C58.0738 57.6639 70.905 24.1547 97.6097 8.73677ZM307.012 87.6418C291.386 81.4965 274.088 76.6044 255.579 73.2247C243.399 58.8809 230.514 46.3426 217.381 35.879C245.014 21.607 266.754 21.6683 280.691 29.7175C294.629 37.7667 305.552 56.5683 307.012 87.6418ZM109.744 29.7175C95.8066 37.7667 84.8837 56.5683 83.4237 87.6417C99.0497 81.4964 116.348 76.6044 134.857 73.2247C147.037 58.8809 159.922 46.3425 173.055 35.879C145.422 21.607 123.682 21.6683 109.744 29.7175ZM24.2709 177.802C24.2709 161.704 35.0877 142.841 61.2609 126.039C63.7534 142.648 68.1668 160.078 74.4952 177.802C68.1668 195.525 63.7534 212.956 61.2609 229.565C35.0877 212.763 24.2709 193.9 24.2709 177.802ZM83.4237 267.962C99.0497 274.107 116.348 279 134.857 282.379C147.037 296.723 159.922 309.261 173.055 319.725C145.422 333.997 123.682 333.936 109.744 325.886C95.8066 317.837 84.8837 299.036 83.4237 267.962ZM280.691 325.886C266.754 333.936 245.014 333.997 217.381 319.725C230.514 309.261 243.399 296.723 255.579 282.379C274.088 278.999 291.386 274.107 307.012 267.962C305.552 299.036 294.629 317.837 280.691 325.886ZM366.165 177.802C366.165 193.9 355.348 212.763 329.175 229.565C326.682 212.956 322.269 195.525 315.941 177.802C322.269 160.078 326.682 142.648 329.175 126.039C355.348 142.841 366.165 161.704 366.165 177.802ZM272.409 178.064C272.409 220.63 237.903 255.137 195.337 255.137C152.771 255.137 118.264 220.63 118.264 178.064C118.264 135.498 152.771 100.992 195.337 100.992C237.903 100.992 272.409 135.498 272.409 178.064Z" fill="url(#paint0_linear_56_159)"/>
<path fill-rule="evenodd" clip-rule="evenodd" d="M97.6097 8.73677C124.314 -6.68117 159.75 -1.0387 195.22 20.5116C230.689 -1.03771 266.123 -6.67969 292.828 8.73796C319.532 24.1556 332.363 57.6639 331.435 99.1558C367.834 119.099 390.439 146.966 390.439 177.802C390.439 208.638 367.835 236.505 331.437 256.447C332.365 297.94 319.534 331.449 292.829 346.867C266.125 362.285 230.689 356.642 195.22 335.092C159.749 356.643 124.313 362.286 97.6081 346.868C70.903 331.45 58.0718 297.94 59.0004 256.446C22.6035 236.504 0 208.637 0 177.802C0 146.966 22.6041 119.099 59.002 99.1568C58.0738 57.6639 70.905 24.1547 97.6097 8.73677ZM307.012 87.6418C291.386 81.4965 274.088 76.6044 255.579 73.2247C243.399 58.8809 230.514 46.3426 217.381 35.879C245.014 21.607 266.754 21.6683 280.691 29.7175C294.629 37.7667 305.552 56.5683 307.012 87.6418ZM109.744 29.7175C95.8066 37.7667 84.8837 56.5683 83.4237 87.6417C99.0497 81.4964 116.348 76.6044 134.857 73.2247C147.037 58.8809 159.922 46.3425 173.055 35.879C145.422 21.607 123.682 21.6683 109.744 29.7175ZM24.2709 177.802C24.2709 161.704 35.0877 142.841 61.2609 126.039C63.7534 142.648 68.1668 160.078 74.4952 177.802C68.1668 195.525 63.7534 212.956 61.2609 229.565C35.0877 212.763 24.2709 193.9 24.2709 177.802ZM83.4237 267.962C99.0497 274.107 116.348 279 134.857 282.379C147.037 296.723 159.922 309.261 173.055 319.725C145.422 333.997 123.682 333.936 109.744 325.886C95.8066 317.837 84.8837 299.036 83.4237 267.962ZM280.691 325.886C266.754 333.936 245.014 333.997 217.381 319.725C230.514 309.261 243.399 296.723 255.579 282.379C274.088 278.999 291.386 274.107 307.012 267.962C305.552 299.036 294.629 317.837 280.691 325.886ZM366.165 177.802C366.165 193.9 355.348 212.763 329.175 229.565C326.682 212.956 322.269 195.525 315.941 177.802C322.269 160.078 326.682 142.648 329.175 126.039C355.348 142.841 366.165 161.704 366.165 177.802ZM272.409 178.064C272.409 220.63 237.903 255.137 195.337 255.137C152.771 255.137 118.264 220.63 118.264 178.064C118.264 135.498 152.771 100.992 195.337 100.992C237.903 100.992 272.409 135.498 272.409 178.064Z" fill="white" fill-opacity="0.08"/>
</g>
<defs>
<linearGradient id="paint0_linear_56_159" x1="195.22" y1="62.2309" x2="183.725" y2="323.128" gradientUnits="userSpaceOnUse">
<stop stop-color="#FD5811"/>
<stop offset="1" stop-color="#FD11AD"/>
</linearGradient>
<clipPath id="clip0_56_159">
<rect width="388" height="356" fill="white"/>
</clipPath>
</defs>
</svg>
