<svg width="118" height="118" viewBox="0 0 118 118" fill="none" xmlns="http://www.w3.org/2000/svg">
<mask id="mask0_7_88" style="mask-type:alpha" maskUnits="userSpaceOnUse" x="0" y="0" width="118" height="118">
<path d="M0 46.046C0 29.7586 0 21.6148 3.21998 15.4161C5.93342 10.1925 10.1925 5.93342 15.4161 3.21998C21.6148 0 29.7586 0 46.046 0H71.954C88.2414 0 96.3852 0 102.584 3.21998C107.807 5.93342 112.067 10.1925 114.78 15.4161C118 21.6148 118 29.7586 118 46.046V71.954C118 88.2414 118 96.3852 114.78 102.584C112.067 107.807 107.807 112.067 102.584 114.78C96.3852 118 88.2414 118 71.954 118H46.046C29.7586 118 21.6148 118 15.4161 114.78C10.1925 112.067 5.93342 107.807 3.21998 102.584C0 96.3852 0 88.2414 0 71.954V46.046Z" fill="#C4C4C4"/>
</mask>
<g mask="url(#mask0_7_88)">
<rect width="118" height="118" fill="black"/>
<g style="mix-blend-mode:lighten">
<path fill-rule="evenodd" clip-rule="evenodd" d="M15.07 54.5606C11.211 57.1741 10.8386 58.7708 10.8386 59C10.8386 59.2292 11.211 60.8259 15.07 63.4394C18.5528 65.7982 23.57 68.0769 29.2787 70.0747C40.7785 74.0992 53.5259 76.4609 59 76.4609C68.6434 76.4609 76.4609 68.6434 76.4609 59C76.4609 49.3566 68.6434 41.5391 59 41.5391C53.5259 41.5391 40.7785 43.9008 29.2787 47.9253C23.57 49.9231 18.5528 52.2018 15.07 54.5606ZM59 36.1665C46.3894 36.1665 5.46597 46.3894 5.46597 59C5.46597 71.6106 46.3894 81.8335 59 81.8335C71.6106 81.8335 81.8335 71.6106 81.8335 59C81.8335 46.3894 71.6106 36.1665 59 36.1665Z" fill="#FF0000"/>
</g>
<g style="mix-blend-mode:lighten">
<path fill-rule="evenodd" clip-rule="evenodd" d="M31.0759 24.7977C26.4992 23.917 25.1068 24.7827 24.9447 24.9448C24.7826 25.1069 23.917 26.4992 24.7977 31.076C25.5925 35.2066 27.5289 40.3656 30.1529 45.8149C35.4387 56.7923 42.7825 67.476 46.6533 71.3468C53.4722 78.1657 64.5278 78.1657 71.3467 71.3468C78.1656 64.5279 78.1656 53.4722 71.3467 46.6533C67.476 42.7826 56.7922 35.4388 45.8148 30.1529C40.3655 27.5289 35.2065 25.5926 31.0759 24.7977ZM75.1457 42.8543C66.2287 33.9373 30.0628 12.2287 21.1457 21.1458C12.2287 30.0628 33.9372 66.2287 42.8543 75.1458C51.7713 84.0628 66.2287 84.0628 75.1457 75.1458C84.0628 66.2287 84.0628 51.7714 75.1457 42.8543Z" fill="#FFBF00"/>
</g>
<g style="mix-blend-mode:lighten">
<path fill-rule="evenodd" clip-rule="evenodd" d="M63.4394 15.07C60.8259 11.211 59.2292 10.8386 59 10.8386C58.7708 10.8386 57.1741 11.211 54.5606 15.07C52.2018 18.5528 49.9231 23.57 47.9253 29.2787C43.9008 40.7785 41.5391 53.5259 41.5391 59C41.5391 68.6434 49.3566 76.4609 59 76.4609C68.6434 76.4609 76.4609 68.6434 76.4609 59C76.4609 53.5259 74.0992 40.7785 70.0747 29.2787C68.0769 23.57 65.7982 18.5528 63.4394 15.07ZM81.8335 59C81.8335 46.3894 71.6106 5.46597 59 5.46597C46.3894 5.46597 36.1665 46.3894 36.1665 59C36.1665 71.6106 46.3894 81.8335 59 81.8335C71.6106 81.8335 81.8335 71.6106 81.8335 59Z" fill="#80FF00"/>
</g>
<g style="mix-blend-mode:lighten">
<path fill-rule="evenodd" clip-rule="evenodd" d="M93.2023 31.0759C94.083 26.4992 93.2173 25.1068 93.0553 24.9447C92.8932 24.7827 91.5008 23.917 86.9241 24.7977C82.7934 25.5925 77.6345 27.5289 72.1851 30.1529C61.2078 35.4387 50.524 42.7825 46.6533 46.6533C39.8344 53.4722 39.8344 64.5278 46.6533 71.3467C53.4722 78.1656 64.5278 78.1656 71.3467 71.3467C75.2175 67.476 82.5613 56.7922 87.8471 45.8148C90.4711 40.3655 92.4075 35.2066 93.2023 31.0759ZM75.1457 75.1457C84.0628 66.2287 105.771 30.0628 96.8543 21.1457C87.9372 12.2287 51.7713 33.9372 42.8543 42.8543C33.9372 51.7713 33.9372 66.2287 42.8543 75.1457C51.7713 84.0628 66.2287 84.0628 75.1457 75.1457Z" fill="#00FF40"/>
</g>
<g style="mix-blend-mode:lighten">
<path fill-rule="evenodd" clip-rule="evenodd" d="M102.93 63.4393C106.789 60.8258 107.161 59.2291 107.161 58.9999C107.161 58.7707 106.789 57.174 102.93 54.5605C99.4472 52.2017 94.43 49.923 88.7213 47.9252C77.2215 43.9007 64.4741 41.539 59 41.539C49.3566 41.539 41.5391 49.3565 41.5391 58.9999C41.5391 68.6433 49.3566 76.4608 59 76.4608C64.4741 76.4608 77.2215 74.0991 88.7213 70.0746C94.43 68.0768 99.4472 65.798 102.93 63.4393ZM59 81.8334C71.6106 81.8334 112.534 71.6105 112.534 58.9999C112.534 46.3893 71.6106 36.1664 59 36.1664C46.3894 36.1664 36.1665 46.3893 36.1665 58.9999C36.1665 71.6105 46.3894 81.8334 59 81.8334Z" fill="#00FFFF"/>
</g>
<g style="mix-blend-mode:lighten">
<path fill-rule="evenodd" clip-rule="evenodd" d="M86.9241 93.2023C91.5008 94.083 92.8932 93.2173 93.0553 93.0552C93.2173 92.8931 94.083 91.5008 93.2023 86.924C92.4075 82.7934 90.4711 77.6344 87.8471 72.1851C82.5613 61.2077 75.2175 50.524 71.3467 46.6532C64.5278 39.8343 53.4722 39.8343 46.6533 46.6532C39.8344 53.4721 39.8344 64.5278 46.6533 71.3467C50.524 75.2174 61.2078 82.5612 72.1852 87.8471C77.6345 90.4711 82.7934 92.4074 86.9241 93.2023ZM42.8543 75.1457C51.7713 84.0627 87.9372 105.771 96.8543 96.8542C105.771 87.9372 84.0628 51.7713 75.1457 42.8542C66.2287 33.9372 51.7713 33.9372 42.8543 42.8542C33.9372 51.7713 33.9372 66.2286 42.8543 75.1457Z" fill="#0040FF"/>
</g>
<g style="mix-blend-mode:lighten">
<path fill-rule="evenodd" clip-rule="evenodd" d="M54.5606 102.93C57.1741 106.789 58.7708 107.161 59 107.161C59.2292 107.161 60.8259 106.789 63.4394 102.93C65.7981 99.4471 68.0769 94.4299 70.0747 88.7212C74.0992 77.2213 76.4609 64.4739 76.4609 58.9999C76.4609 49.3565 68.6434 41.539 59 41.539C49.3566 41.539 41.5391 49.3565 41.5391 58.9999C41.5391 64.4739 43.9008 77.2213 47.9253 88.7212C49.9231 94.4299 52.2018 99.4471 54.5606 102.93ZM36.1665 58.9999C36.1665 71.6105 46.3894 112.534 59 112.534C71.6106 112.534 81.8335 71.6105 81.8335 58.9999C81.8335 46.3893 71.6106 36.1664 59 36.1664C46.3894 36.1664 36.1665 46.3893 36.1665 58.9999Z" fill="#8000FF"/>
</g>
<g style="mix-blend-mode:lighten">
<path fill-rule="evenodd" clip-rule="evenodd" d="M24.7976 86.9241C23.9169 91.5008 24.7826 92.8932 24.9447 93.0553C25.1068 93.2173 26.4991 94.083 31.0759 93.2023C35.2065 92.4075 40.3655 90.4711 45.8148 87.8471C56.7922 82.5613 67.476 75.2175 71.3467 71.3467C78.1656 64.5278 78.1656 53.4722 71.3467 46.6533C64.5278 39.8344 53.4722 39.8344 46.6533 46.6533C42.7825 50.524 35.4387 61.2078 30.1528 72.1851C27.5289 77.6345 25.5925 82.7934 24.7976 86.9241ZM42.8543 42.8543C33.9372 51.7713 12.2287 87.9372 21.1457 96.8543C30.0628 105.771 66.2287 84.0628 75.1457 75.1457C84.0628 66.2287 84.0628 51.7713 75.1457 42.8543C66.2287 33.9372 51.7713 33.9372 42.8543 42.8543Z" fill="#FF00BF"/>
</g>
<path fill-rule="evenodd" clip-rule="evenodd" d="M58.9178 76.3787C68.5612 76.3787 76.3787 68.5611 76.3787 58.9177C76.3787 49.2743 68.5612 41.4568 58.9178 41.4568C49.2744 41.4568 41.4569 49.2743 41.4569 58.9177C41.4569 68.5611 49.2744 76.3787 58.9178 76.3787ZM58.9178 81.7512C71.5284 81.7512 81.7513 71.5283 81.7513 58.9177C81.7513 46.3071 71.5284 36.0842 58.9178 36.0842C46.3072 36.0842 36.0843 46.3071 36.0843 58.9177C36.0843 71.5283 46.3072 81.7512 58.9178 81.7512Z" fill="white"/>
</g>
</svg>
